<svg width="821" height="183" viewBox="0 0 821 183" fill="none" xmlns="http://www.w3.org/2000/svg">
<path d="M0.5625 68V4H14.0938V56.8437H41.5313V68H0.5625ZM70.3572 68.9375C65.4197 68.9375 61.1697 67.9375 57.6072 65.9375C54.0655 63.9167 51.3364 61.0625 49.4197 57.375C47.503 53.6667 46.5447 49.2812 46.5447 44.2187C46.5447 39.2812 47.503 34.9479 49.4197 31.2188C51.3364 27.4896 54.0343 24.5833 57.5134 22.5C61.0134 20.4167 65.1176 19.375 69.8259 19.375C72.9926 19.375 75.9405 19.8854 78.6697 20.9062C81.4197 21.9062 83.8155 23.4167 85.8572 25.4375C87.9197 27.4583 89.5239 30 90.6697 33.0625C91.8155 36.1042 92.3884 39.6667 92.3884 43.75V47.4062H51.8572V39.1562H79.8572C79.8572 37.2396 79.4405 35.5417 78.6072 34.0625C77.7739 32.5833 76.6176 31.4271 75.1384 30.5937C73.6801 29.7396 71.9822 29.3125 70.0447 29.3125C68.0239 29.3125 66.2322 29.7812 64.6697 30.7187C63.128 31.6354 61.9197 32.875 61.0447 34.4375C60.1697 35.9792 59.7218 37.6979 59.7009 39.5937V47.4375C59.7009 49.8125 60.1384 51.8646 61.0134 53.5937C61.9093 55.3229 63.1697 56.6562 64.7947 57.5937C66.4197 58.5312 68.3468 59 70.5759 59C72.0551 59 73.4093 58.7917 74.6384 58.375C75.8676 57.9583 76.9197 57.3333 77.7947 56.5C78.6697 55.6667 79.3364 54.6458 79.7947 53.4375L92.1072 54.25C91.4822 57.2083 90.2009 59.7917 88.2634 62C86.3468 64.1875 83.8676 65.8958 80.8259 67.125C77.8051 68.3333 74.3155 68.9375 70.3572 68.9375ZM113.003 68.9063C109.941 68.9063 107.212 68.375 104.816 67.3125C102.42 66.2292 100.524 64.6354 99.1284 62.5312C97.7534 60.4063 97.0659 57.7604 97.0659 54.5938C97.0659 51.9271 97.5555 49.6875 98.5347 47.875C99.5139 46.0625 100.847 44.6042 102.535 43.5C104.222 42.3958 106.139 41.5625 108.285 41C110.451 40.4375 112.722 40.0417 115.097 39.8125C117.889 39.5208 120.139 39.25 121.847 39C123.556 38.7292 124.795 38.3333 125.566 37.8125C126.337 37.2917 126.722 36.5208 126.722 35.5V35.3125C126.722 33.3333 126.097 31.8021 124.847 30.7187C123.618 29.6354 121.868 29.0937 119.597 29.0937C117.201 29.0937 115.295 29.625 113.878 30.6875C112.462 31.7292 111.524 33.0417 111.066 34.625L98.7534 33.625C99.3784 30.7083 100.608 28.1875 102.441 26.0625C104.274 23.9167 106.639 22.2708 109.535 21.125C112.451 19.9583 115.826 19.375 119.66 19.375C122.326 19.375 124.878 19.6875 127.316 20.3125C129.774 20.9375 131.951 21.9062 133.847 23.2187C135.764 24.5312 137.274 26.2187 138.378 28.2812C139.483 30.3229 140.035 32.7708 140.035 35.625V68H127.41V61.3438H127.035C126.264 62.8438 125.233 64.1667 123.941 65.3125C122.649 66.4375 121.097 67.3229 119.285 67.9687C117.472 68.5938 115.378 68.9063 113.003 68.9063ZM116.816 59.7187C118.774 59.7187 120.503 59.3333 122.003 58.5625C123.503 57.7708 124.681 56.7083 125.535 55.375C126.389 54.0417 126.816 52.5312 126.816 50.8437V45.75C126.399 46.0208 125.826 46.2708 125.097 46.5C124.389 46.7083 123.587 46.9062 122.691 47.0937C121.795 47.2604 120.899 47.4167 120.003 47.5625C119.108 47.6875 118.295 47.8021 117.566 47.9062C116.003 48.1354 114.639 48.5 113.472 49C112.306 49.5 111.399 50.1771 110.753 51.0313C110.108 51.8646 109.785 52.9062 109.785 54.1562C109.785 55.9688 110.441 57.3542 111.753 58.3125C113.087 59.25 114.774 59.7187 116.816 59.7187ZM166.29 68.7812C162.644 68.7812 159.342 67.8437 156.384 65.9687C153.447 64.0729 151.113 61.2917 149.384 57.625C147.676 53.9375 146.822 49.4167 146.822 44.0625C146.822 38.5625 147.707 33.9896 149.478 30.3437C151.249 26.6771 153.603 23.9375 156.54 22.125C159.499 20.2917 162.738 19.375 166.259 19.375C168.947 19.375 171.186 19.8333 172.978 20.75C174.79 21.6458 176.249 22.7708 177.353 24.125C178.478 25.4583 179.332 26.7708 179.915 28.0625H180.322V4H193.603V68H180.478V60.3125H179.915C179.29 61.6458 178.405 62.9687 177.259 64.2812C176.134 65.5729 174.665 66.6458 172.853 67.5C171.061 68.3542 168.874 68.7812 166.29 68.7812ZM170.509 58.1875C172.655 58.1875 174.467 57.6042 175.947 56.4375C177.447 55.25 178.592 53.5937 179.384 51.4687C180.197 49.3437 180.603 46.8542 180.603 44C180.603 41.1458 180.207 38.6667 179.415 36.5625C178.624 34.4583 177.478 32.8333 175.978 31.6875C174.478 30.5417 172.655 29.9687 170.509 29.9687C168.322 29.9687 166.478 30.5625 164.978 31.75C163.478 32.9375 162.342 34.5833 161.572 36.6875C160.801 38.7917 160.415 41.2292 160.415 44C160.415 46.7917 160.801 49.2604 161.572 51.4062C162.363 53.5312 163.499 55.1979 164.978 56.4063C166.478 57.5937 168.322 58.1875 170.509 58.1875ZM202.788 68V20H216.101V68H202.788ZM209.476 13.8125C207.496 13.8125 205.799 13.1562 204.382 11.8437C202.986 10.5104 202.288 8.91666 202.288 7.0625C202.288 5.22916 202.986 3.65625 204.382 2.34375C205.799 1.01041 207.496 0.343747 209.476 0.343747C211.455 0.343747 213.142 1.01041 214.538 2.34375C215.955 3.65625 216.663 5.22916 216.663 7.0625C216.663 8.91666 215.955 10.5104 214.538 11.8437C213.142 13.1562 211.455 13.8125 209.476 13.8125ZM238.317 40.25V68H225.005V20H237.692V28.4688H238.255C239.317 25.6771 241.098 23.4687 243.598 21.8437C246.098 20.1979 249.13 19.375 252.692 19.375C256.026 19.375 258.932 20.1042 261.411 21.5625C263.89 23.0208 265.817 25.1042 267.192 27.8125C268.567 30.5 269.255 33.7083 269.255 37.4375V68H255.942V39.8125C255.963 36.875 255.213 34.5833 253.692 32.9375C252.171 31.2708 250.078 30.4375 247.411 30.4375C245.619 30.4375 244.036 30.8229 242.661 31.5937C241.307 32.3646 240.244 33.4896 239.473 34.9687C238.723 36.4271 238.338 38.1875 238.317 40.25ZM299.612 87C295.299 87 291.601 86.4063 288.518 85.2188C285.456 84.0521 283.018 82.4583 281.206 80.4375C279.393 78.4167 278.216 76.1458 277.674 73.625L289.987 71.9688C290.362 72.9271 290.956 73.8229 291.768 74.6562C292.581 75.4896 293.654 76.1562 294.987 76.6562C296.341 77.1771 297.987 77.4375 299.924 77.4375C302.82 77.4375 305.206 76.7292 307.081 75.3125C308.976 73.9167 309.924 71.5729 309.924 68.2813V59.5H309.362C308.779 60.8333 307.904 62.0937 306.737 63.2812C305.57 64.4687 304.07 65.4375 302.237 66.1875C300.404 66.9375 298.216 67.3125 295.674 67.3125C292.07 67.3125 288.789 66.4792 285.831 64.8125C282.893 63.125 280.549 60.5521 278.799 57.0937C277.07 53.6146 276.206 49.2187 276.206 43.9062C276.206 38.4687 277.091 33.9271 278.862 30.2812C280.633 26.6354 282.987 23.9062 285.924 22.0937C288.883 20.2813 292.122 19.375 295.643 19.375C298.331 19.375 300.581 19.8333 302.393 20.75C304.206 21.6458 305.664 22.7708 306.768 24.125C307.893 25.4583 308.758 26.7708 309.362 28.0625H309.862V20H323.081V68.4688C323.081 72.5521 322.081 75.9688 320.081 78.7188C318.081 81.4688 315.31 83.5313 311.768 84.9063C308.247 86.3021 304.195 87 299.612 87ZM299.893 57.3125C302.039 57.3125 303.851 56.7812 305.331 55.7188C306.831 54.6354 307.976 53.0937 308.768 51.0937C309.581 49.0729 309.987 46.6562 309.987 43.8437C309.987 41.0312 309.591 38.5937 308.799 36.5312C308.008 34.4479 306.862 32.8333 305.362 31.6875C303.862 30.5417 302.039 29.9687 299.893 29.9687C297.706 29.9687 295.862 30.5625 294.362 31.75C292.862 32.9167 291.726 34.5417 290.956 36.625C290.185 38.7083 289.799 41.1146 289.799 43.8437C289.799 46.6146 290.185 49.0104 290.956 51.0313C291.747 53.0312 292.883 54.5833 294.362 55.6875C295.862 56.7708 297.706 57.3125 299.893 57.3125ZM376.834 20L375.834 26.25H350.959L351.959 20H376.834ZM361.084 8.5H368.459L360.834 54.25C360.501 56.3333 360.553 57.8958 360.99 58.9375C361.449 59.9583 362.136 60.6458 363.053 61C363.99 61.3333 365.001 61.5 366.084 61.5C366.897 61.5 367.563 61.4583 368.084 61.375C368.605 61.2708 369.022 61.1875 369.334 61.125L369.834 67.75C369.272 67.9375 368.511 68.125 367.553 68.3125C366.615 68.5208 365.459 68.625 364.084 68.625C362.001 68.625 360.042 68.1771 358.209 67.2812C356.376 66.3854 354.969 65.0208 353.99 63.1875C353.011 61.3542 352.751 59.0417 353.209 56.25L361.084 8.5ZM391.324 39.125L386.574 68H379.199L389.824 4H397.199L393.324 27.5H393.949C395.449 25 397.449 23.0208 399.949 21.5625C402.47 20.1042 405.637 19.375 409.449 19.375C412.699 19.375 415.439 20.0312 417.668 21.3437C419.918 22.6354 421.501 24.625 422.418 27.3125C423.355 29.9792 423.491 33.375 422.824 37.5L417.699 68H410.324L415.324 38C415.949 34.1875 415.439 31.2396 413.793 29.1562C412.168 27.0521 409.637 26 406.199 26C403.782 26 401.532 26.5104 399.449 27.5312C397.387 28.5521 395.637 30.0417 394.199 32C392.782 33.9583 391.824 36.3333 391.324 39.125ZM449.431 69C444.827 69 441.025 67.9792 438.025 65.9375C435.025 63.875 432.931 61 431.744 57.3125C430.556 53.6042 430.369 49.2917 431.181 44.375C431.994 39.4583 433.608 35.125 436.025 31.375C438.442 27.6042 441.452 24.6667 445.056 22.5625C448.66 20.4375 452.619 19.375 456.931 19.375C459.431 19.375 461.837 19.7917 464.15 20.625C466.462 21.4583 468.462 22.8125 470.15 24.6875C471.837 26.5417 473.015 29 473.681 32.0625C474.348 35.125 474.306 38.8958 473.556 43.375L473.056 46.5H436.056L437.056 40.125H466.556C467.035 37.4167 466.91 35 466.181 32.875C465.473 30.75 464.233 29.0729 462.462 27.8437C460.712 26.6146 458.494 26 455.806 26C453.035 26 450.452 26.75 448.056 28.25C445.66 29.7292 443.66 31.6042 442.056 33.875C440.452 36.125 439.452 38.4167 439.056 40.75L438.181 46.25C437.556 50.2292 437.65 53.3958 438.462 55.75C439.296 58.1042 440.744 59.8021 442.806 60.8437C444.869 61.8646 447.452 62.375 450.556 62.375C452.535 62.375 454.358 62.1042 456.025 61.5625C457.692 61 459.181 60.1667 460.494 59.0625C461.806 57.9375 462.91 56.5417 463.806 54.875L470.556 56.875C469.41 59.2917 467.796 61.4167 465.712 63.25C463.65 65.0625 461.233 66.4792 458.462 67.5C455.712 68.5 452.702 69 449.431 69ZM512.927 68L506.302 20H514.052L518.302 56.75H518.802L535.177 20H543.052L547.052 56.625H547.552L564.052 20H571.802L549.177 68H541.927L537.552 31.125H536.802L520.177 68H512.927ZM585.792 69.125C582.75 69.125 580.084 68.5521 577.792 67.4062C575.5 66.2396 573.802 64.5625 572.698 62.375C571.594 60.1667 571.292 57.5 571.792 54.375C572.271 51.625 573.198 49.3958 574.573 47.6875C575.948 45.9583 577.615 44.6042 579.573 43.625C581.552 42.625 583.677 41.8854 585.948 41.4062C588.24 40.9062 590.521 40.5208 592.792 40.25C595.75 39.875 598.156 39.5833 600.011 39.375C601.865 39.1667 603.261 38.8229 604.198 38.3437C605.136 37.8646 605.709 37.0417 605.917 35.875V35.625C606.417 32.5625 606.011 30.1771 604.698 28.4688C603.386 26.7396 601.042 25.875 597.667 25.875C594.167 25.875 591.24 26.6458 588.886 28.1875C586.531 29.7292 584.792 31.375 583.667 33.125L577.167 30.625C578.875 27.7083 580.917 25.4375 583.292 23.8125C585.667 22.1667 588.156 21.0208 590.761 20.375C593.365 19.7083 595.875 19.375 598.292 19.375C599.834 19.375 601.573 19.5625 603.511 19.9375C605.448 20.2917 607.261 21.0312 608.948 22.1562C610.656 23.2812 611.938 24.9792 612.792 27.25C613.667 29.5208 613.792 32.5625 613.167 36.375L607.917 68H600.542L601.667 61.5H601.292C600.625 62.5417 599.604 63.6562 598.229 64.8438C596.875 66.0313 595.156 67.0417 593.073 67.875C591.011 68.7083 588.584 69.125 585.792 69.125ZM587.917 62.5C590.834 62.5 593.386 61.9271 595.573 60.7812C597.781 59.6354 599.552 58.1562 600.886 56.3437C602.24 54.5312 603.084 52.625 603.417 50.625L604.542 43.875C604.167 44.25 603.427 44.5937 602.323 44.9062C601.219 45.1979 599.969 45.4583 598.573 45.6875C597.198 45.8958 595.854 46.0833 594.542 46.25C593.25 46.3958 592.209 46.5208 591.417 46.625C589.459 46.875 587.594 47.2812 585.823 47.8437C584.073 48.3854 582.594 49.2083 581.386 50.3125C580.198 51.3958 579.459 52.875 579.167 54.75C578.729 57.3125 579.344 59.25 581.011 60.5625C582.677 61.8542 584.979 62.5 587.917 62.5ZM619.712 86C618.462 86 617.357 85.8958 616.399 85.6875C615.462 85.5 614.816 85.3125 614.462 85.125L617.462 78.625C619.17 79.0833 620.691 79.2188 622.024 79.0313C623.378 78.8646 624.659 78.2083 625.868 77.0625C627.097 75.9375 628.378 74.1667 629.712 71.75L631.774 68L622.149 20H629.837L636.712 58.375H637.212L656.837 20H665.149L635.712 74.9375C634.337 77.5 632.826 79.5938 631.18 81.2188C629.534 82.8438 627.753 84.0417 625.837 84.8125C623.92 85.6042 621.878 86 619.712 86ZM688.113 68L696.113 20H703.488L695.488 68H688.113ZM702.051 11.875C700.613 11.875 699.374 11.3854 698.332 10.4062C697.311 9.42708 696.801 8.25 696.801 6.875C696.801 5.5 697.311 4.32291 698.332 3.34375C699.374 2.36458 700.613 1.875 702.051 1.875C703.488 1.875 704.718 2.36458 705.738 3.34375C706.78 4.32291 707.301 5.5 707.301 6.875C707.301 8.25 706.78 9.42708 705.738 10.4062C704.718 11.3854 703.488 11.875 702.051 11.875ZM719.361 39.125L714.611 68H707.236L715.236 20H722.361L721.111 27.5H721.736C723.236 25.0625 725.268 23.1042 727.83 21.625C730.393 20.125 733.486 19.375 737.111 19.375C740.32 19.375 743.028 20.0417 745.236 21.375C747.465 22.6875 749.038 24.6875 749.955 27.375C750.893 30.0417 751.028 33.4167 750.361 37.5L745.236 68H737.861L742.861 38C743.486 34.25 742.997 31.3125 741.393 29.1875C739.809 27.0625 737.299 26 733.861 26C731.486 26 729.288 26.5104 727.268 27.5312C725.268 28.5521 723.57 30.0417 722.174 32C720.799 33.9583 719.861 36.3333 719.361 39.125ZM40.0938 101H53.625V142.562C53.625 147.229 52.5104 151.312 50.2813 154.812C48.0729 158.312 44.9792 161.042 41 163C37.0208 164.938 32.3854 165.906 27.0938 165.906C21.7813 165.906 17.1354 164.938 13.1563 163C9.17708 161.042 6.08333 158.312 3.875 154.812C1.66667 151.312 0.5625 147.229 0.5625 142.562V101H14.0938V141.406C14.0938 143.844 14.625 146.01 15.6875 147.906C16.7708 149.802 18.2917 151.292 20.25 152.375C22.2083 153.458 24.4896 154 27.0938 154C29.7188 154 32 153.458 33.9375 152.375C35.8958 151.292 37.4063 149.802 38.4688 147.906C39.5521 146.01 40.0938 143.844 40.0938 141.406V101ZM62.7478 165V117H75.6541V125.375H76.1541C77.0291 122.396 78.4978 120.146 80.5603 118.625C82.6228 117.083 84.9978 116.312 87.6853 116.312C88.352 116.312 89.0707 116.354 89.8416 116.437C90.6124 116.521 91.2895 116.635 91.8728 116.781V128.594C91.2478 128.406 90.3832 128.24 89.2791 128.094C88.1749 127.948 87.1645 127.875 86.2478 127.875C84.2895 127.875 82.5395 128.302 80.9978 129.156C79.477 129.99 78.2686 131.156 77.3728 132.656C76.4978 134.156 76.0603 135.885 76.0603 137.844V165H62.7478ZM97.2456 165V101H110.558V125.062H110.964C111.548 123.771 112.391 122.458 113.496 121.125C114.621 119.771 116.079 118.646 117.871 117.75C119.683 116.833 121.933 116.375 124.621 116.375C128.121 116.375 131.35 117.292 134.308 119.125C137.266 120.937 139.631 123.677 141.402 127.344C143.173 130.99 144.058 135.562 144.058 141.062C144.058 146.417 143.194 150.937 141.464 154.625C139.756 158.292 137.423 161.073 134.464 162.969C131.527 164.844 128.235 165.781 124.589 165.781C122.006 165.781 119.808 165.354 117.996 164.5C116.204 163.646 114.735 162.573 113.589 161.281C112.444 159.969 111.569 158.646 110.964 157.312H110.371V165H97.2456ZM110.277 141C110.277 143.854 110.673 146.344 111.464 148.469C112.256 150.594 113.402 152.25 114.902 153.437C116.402 154.604 118.225 155.187 120.371 155.187C122.537 155.187 124.371 154.594 125.871 153.406C127.371 152.198 128.506 150.531 129.277 148.406C130.069 146.26 130.464 143.792 130.464 141C130.464 138.229 130.079 135.792 129.308 133.687C128.537 131.583 127.402 129.937 125.902 128.75C124.402 127.562 122.558 126.969 120.371 126.969C118.204 126.969 116.371 127.542 114.871 128.687C113.391 129.833 112.256 131.458 111.464 133.562C110.673 135.667 110.277 138.146 110.277 141ZM164.868 165.906C161.806 165.906 159.077 165.375 156.681 164.312C154.285 163.229 152.389 161.635 150.993 159.531C149.618 157.406 148.931 154.76 148.931 151.594C148.931 148.927 149.421 146.687 150.4 144.875C151.379 143.063 152.712 141.604 154.4 140.5C156.087 139.396 158.004 138.562 160.15 138C162.316 137.437 164.587 137.042 166.962 136.812C169.754 136.521 172.004 136.25 173.712 136C175.421 135.729 176.66 135.333 177.431 134.812C178.202 134.292 178.587 133.521 178.587 132.5V132.312C178.587 130.333 177.962 128.802 176.712 127.719C175.483 126.635 173.733 126.094 171.462 126.094C169.066 126.094 167.16 126.625 165.743 127.687C164.327 128.729 163.389 130.042 162.931 131.625L150.618 130.625C151.243 127.708 152.473 125.187 154.306 123.062C156.139 120.917 158.504 119.271 161.4 118.125C164.316 116.958 167.691 116.375 171.525 116.375C174.191 116.375 176.743 116.687 179.181 117.312C181.639 117.937 183.816 118.906 185.712 120.219C187.629 121.531 189.139 123.219 190.243 125.281C191.348 127.323 191.9 129.771 191.9 132.625V165H179.275V158.344H178.9C178.129 159.844 177.098 161.167 175.806 162.312C174.514 163.437 172.962 164.323 171.15 164.969C169.337 165.594 167.243 165.906 164.868 165.906ZM168.681 156.719C170.639 156.719 172.368 156.333 173.868 155.562C175.368 154.771 176.546 153.708 177.4 152.375C178.254 151.042 178.681 149.531 178.681 147.844V142.75C178.264 143.021 177.691 143.271 176.962 143.5C176.254 143.708 175.452 143.906 174.556 144.094C173.66 144.26 172.764 144.417 171.868 144.562C170.973 144.687 170.16 144.802 169.431 144.906C167.868 145.135 166.504 145.5 165.337 146C164.171 146.5 163.264 147.177 162.618 148.031C161.973 148.865 161.65 149.906 161.65 151.156C161.65 152.969 162.306 154.354 163.618 155.312C164.952 156.25 166.639 156.719 168.681 156.719ZM213.78 137.25V165H200.468V117H213.155V125.469H213.718C214.78 122.677 216.562 120.469 219.062 118.844C221.562 117.198 224.593 116.375 228.155 116.375C231.489 116.375 234.395 117.104 236.874 118.562C239.353 120.021 241.28 122.104 242.655 124.812C244.03 127.5 244.718 130.708 244.718 134.437V165H231.405V136.812C231.426 133.875 230.676 131.583 229.155 129.938C227.634 128.271 225.541 127.437 222.874 127.437C221.082 127.437 219.499 127.823 218.124 128.594C216.77 129.365 215.707 130.49 214.937 131.969C214.187 133.427 213.801 135.188 213.78 137.25ZM294.995 165H272.307V101H295.182C301.62 101 307.161 102.281 311.807 104.844C316.453 107.385 320.026 111.042 322.526 115.812C325.047 120.583 326.307 126.292 326.307 132.937C326.307 139.604 325.047 145.333 322.526 150.125C320.026 154.917 316.432 158.594 311.745 161.156C307.078 163.719 301.495 165 294.995 165ZM285.838 153.406H294.432C298.432 153.406 301.797 152.698 304.526 151.281C307.276 149.844 309.338 147.625 310.713 144.625C312.109 141.604 312.807 137.708 312.807 132.937C312.807 128.208 312.109 124.344 310.713 121.344C309.338 118.344 307.286 116.135 304.557 114.719C301.828 113.302 298.463 112.594 294.463 112.594H285.838V153.406ZM356.196 165.938C351.258 165.938 347.008 164.938 343.446 162.938C339.904 160.917 337.175 158.062 335.258 154.375C333.341 150.667 332.383 146.281 332.383 141.219C332.383 136.281 333.341 131.948 335.258 128.219C337.175 124.49 339.873 121.583 343.352 119.5C346.852 117.417 350.956 116.375 355.664 116.375C358.831 116.375 361.779 116.885 364.508 117.906C367.258 118.906 369.654 120.417 371.696 122.437C373.758 124.458 375.362 127 376.508 130.062C377.654 133.104 378.227 136.667 378.227 140.75V144.406H337.696V136.156H365.696C365.696 134.24 365.279 132.542 364.446 131.063C363.612 129.583 362.456 128.427 360.977 127.594C359.519 126.74 357.821 126.312 355.883 126.312C353.862 126.312 352.071 126.781 350.508 127.719C348.966 128.635 347.758 129.875 346.883 131.437C346.008 132.979 345.56 134.698 345.539 136.594V144.437C345.539 146.812 345.977 148.865 346.852 150.594C347.748 152.323 349.008 153.656 350.633 154.594C352.258 155.531 354.185 156 356.414 156C357.894 156 359.248 155.792 360.477 155.375C361.706 154.958 362.758 154.333 363.633 153.5C364.508 152.667 365.175 151.646 365.633 150.438L377.946 151.25C377.321 154.208 376.039 156.792 374.102 159C372.185 161.187 369.706 162.896 366.664 164.125C363.644 165.333 360.154 165.938 356.196 165.938ZM428.615 117L411.834 165H396.834L380.053 117H394.115L404.084 151.344H404.584L414.522 117H428.615ZM453.996 165.938C449.058 165.938 444.808 164.938 441.246 162.938C437.704 160.917 434.975 158.062 433.058 154.375C431.142 150.667 430.183 146.281 430.183 141.219C430.183 136.281 431.142 131.948 433.058 128.219C434.975 124.49 437.673 121.583 441.152 119.5C444.652 117.417 448.756 116.375 453.465 116.375C456.631 116.375 459.579 116.885 462.308 117.906C465.058 118.906 467.454 120.417 469.496 122.437C471.558 124.458 473.163 127 474.308 130.062C475.454 133.104 476.027 136.667 476.027 140.75V144.406H435.496V136.156H463.496C463.496 134.24 463.079 132.542 462.246 131.063C461.413 129.583 460.256 128.427 458.777 127.594C457.319 126.74 455.621 126.312 453.683 126.312C451.663 126.312 449.871 126.781 448.308 127.719C446.767 128.635 445.558 129.875 444.683 131.437C443.808 132.979 443.361 134.698 443.34 136.594V144.437C443.34 146.812 443.777 148.865 444.652 150.594C445.548 152.323 446.808 153.656 448.433 154.594C450.058 155.531 451.986 156 454.215 156C455.694 156 457.048 155.792 458.277 155.375C459.506 154.958 460.558 154.333 461.433 153.5C462.308 152.667 462.975 151.646 463.433 150.438L475.746 151.25C475.121 154.208 473.84 156.792 471.902 159C469.986 161.187 467.506 162.896 464.465 164.125C461.444 165.333 457.954 165.938 453.996 165.938ZM496.267 101V165H482.955V101H496.267ZM526.859 165.938C522.005 165.938 517.807 164.906 514.265 162.844C510.744 160.76 508.025 157.865 506.109 154.156C504.192 150.427 503.234 146.104 503.234 141.187C503.234 136.229 504.192 131.896 506.109 128.187C508.025 124.458 510.744 121.562 514.265 119.5C517.807 117.417 522.005 116.375 526.859 116.375C531.713 116.375 535.9 117.417 539.421 119.5C542.963 121.562 545.692 124.458 547.609 128.187C549.525 131.896 550.484 136.229 550.484 141.187C550.484 146.104 549.525 150.427 547.609 154.156C545.692 157.865 542.963 160.76 539.421 162.844C535.9 164.906 531.713 165.938 526.859 165.938ZM526.921 155.625C529.13 155.625 530.973 155 532.453 153.75C533.932 152.479 535.046 150.75 535.796 148.562C536.567 146.375 536.953 143.885 536.953 141.094C536.953 138.302 536.567 135.813 535.796 133.625C535.046 131.437 533.932 129.708 532.453 128.437C530.973 127.167 529.13 126.531 526.921 126.531C524.692 126.531 522.817 127.167 521.296 128.437C519.796 129.708 518.661 131.437 517.89 133.625C517.14 135.813 516.765 138.302 516.765 141.094C516.765 143.885 517.14 146.375 517.89 148.562C518.661 150.75 519.796 152.479 521.296 153.75C522.817 155 524.692 155.625 526.921 155.625ZM557.38 183V117H570.505V125.062H571.099C571.682 123.771 572.526 122.458 573.63 121.125C574.755 119.771 576.213 118.646 578.005 117.75C579.818 116.833 582.068 116.375 584.755 116.375C588.255 116.375 591.484 117.292 594.443 119.125C597.401 120.937 599.765 123.677 601.536 127.344C603.307 130.99 604.193 135.562 604.193 141.062C604.193 146.417 603.328 150.937 601.599 154.625C599.89 158.292 597.557 161.073 594.599 162.969C591.661 164.844 588.37 165.781 584.724 165.781C582.14 165.781 579.943 165.354 578.13 164.5C576.338 163.646 574.87 162.573 573.724 161.281C572.578 159.969 571.703 158.646 571.099 157.312H570.693V183H557.38ZM570.411 141C570.411 143.854 570.807 146.344 571.599 148.469C572.39 150.594 573.536 152.25 575.036 153.437C576.536 154.604 578.359 155.187 580.505 155.187C582.672 155.187 584.505 154.594 586.005 153.406C587.505 152.198 588.64 150.531 589.411 148.406C590.203 146.26 590.599 143.792 590.599 141C590.599 138.229 590.213 135.792 589.443 133.687C588.672 131.583 587.536 129.937 586.036 128.75C584.536 127.562 582.693 126.969 580.505 126.969C578.338 126.969 576.505 127.542 575.005 128.687C573.526 129.833 572.39 131.458 571.599 133.562C570.807 135.667 570.411 138.146 570.411 141ZM611.307 165V117H623.995V125.469H624.557C625.557 122.656 627.224 120.437 629.557 118.812C631.891 117.187 634.682 116.375 637.932 116.375C641.224 116.375 644.026 117.198 646.339 118.844C648.651 120.469 650.193 122.677 650.964 125.469H651.464C652.443 122.719 654.214 120.521 656.776 118.875C659.36 117.208 662.412 116.375 665.932 116.375C670.412 116.375 674.047 117.802 676.839 120.656C679.651 123.49 681.057 127.51 681.057 132.719V165H667.776V135.344C667.776 132.677 667.068 130.677 665.651 129.344C664.235 128.01 662.464 127.344 660.339 127.344C657.922 127.344 656.037 128.115 654.682 129.656C653.328 131.177 652.651 133.187 652.651 135.687V165H639.745V135.062C639.745 132.708 639.068 130.833 637.714 129.437C636.38 128.042 634.62 127.344 632.432 127.344C630.953 127.344 629.62 127.719 628.432 128.469C627.266 129.198 626.339 130.229 625.651 131.562C624.964 132.875 624.62 134.417 624.62 136.187V165H611.307ZM711.688 165.938C706.751 165.938 702.501 164.938 698.938 162.938C695.396 160.917 692.667 158.062 690.751 154.375C688.834 150.667 687.876 146.281 687.876 141.219C687.876 136.281 688.834 131.948 690.751 128.219C692.667 124.49 695.365 121.583 698.844 119.5C702.344 117.417 706.449 116.375 711.157 116.375C714.324 116.375 717.271 116.885 720.001 117.906C722.751 118.906 725.146 120.417 727.188 122.437C729.251 124.458 730.855 127 732.001 130.062C733.146 133.104 733.719 136.667 733.719 140.75V144.406H693.188V136.156H721.188C721.188 134.24 720.771 132.542 719.938 131.063C719.105 129.583 717.949 128.427 716.469 127.594C715.011 126.74 713.313 126.312 711.376 126.312C709.355 126.312 707.563 126.781 706.001 127.719C704.459 128.635 703.251 129.875 702.376 131.437C701.501 132.979 701.053 134.698 701.032 136.594V144.437C701.032 146.812 701.469 148.865 702.344 150.594C703.24 152.323 704.501 153.656 706.126 154.594C707.751 155.531 709.678 156 711.907 156C713.386 156 714.74 155.792 715.969 155.375C717.199 154.958 718.251 154.333 719.126 153.5C720.001 152.667 720.667 151.646 721.126 150.438L733.438 151.25C732.813 154.208 731.532 156.792 729.594 159C727.678 161.187 725.199 162.896 722.157 164.125C719.136 165.333 715.646 165.938 711.688 165.938ZM753.959 137.25V165H740.647V117H753.334V125.469H753.897C754.959 122.677 756.741 120.469 759.241 118.844C761.741 117.198 764.772 116.375 768.334 116.375C771.668 116.375 774.574 117.104 777.053 118.562C779.532 120.021 781.459 122.104 782.834 124.812C784.209 127.5 784.897 130.708 784.897 134.437V165H771.584V136.812C771.605 133.875 770.855 131.583 769.334 129.938C767.814 128.271 765.72 127.437 763.053 127.437C761.261 127.437 759.678 127.823 758.303 128.594C756.949 129.365 755.886 130.49 755.116 131.969C754.366 133.427 753.98 135.188 753.959 137.25ZM819.16 117V127H790.254V117H819.16ZM796.817 105.5H810.129V150.25C810.129 151.479 810.317 152.437 810.692 153.125C811.067 153.792 811.587 154.26 812.254 154.531C812.942 154.802 813.733 154.937 814.629 154.937C815.254 154.937 815.879 154.885 816.504 154.781C817.129 154.656 817.608 154.562 817.942 154.5L820.035 164.406C819.369 164.615 818.431 164.854 817.223 165.125C816.015 165.417 814.546 165.594 812.817 165.656C809.608 165.781 806.796 165.354 804.379 164.375C801.983 163.396 800.119 161.875 798.785 159.812C797.452 157.75 796.796 155.146 796.817 152V105.5Z" fill="#161F30"/>
</svg>
